<?xml version="1.0" encoding="UTF-8"?>
<!DOCTYPE svg PUBLIC "-//W3C//DTD SVG 1.1//EN" "http://www.w3.org/Graphics/SVG/1.1/DTD/svg11.dtd">
<!-- Creator: CorelDRAW 2021 (64-Bit) -->
<svg xmlns="http://www.w3.org/2000/svg" xml:space="preserve" width="18.6385mm" height="22.367mm" version="1.1" style="shape-rendering:geometricPrecision; text-rendering:geometricPrecision; image-rendering:optimizeQuality; fill-rule:evenodd; clip-rule:evenodd"
viewBox="0 0 1.43 1.72"
 xmlns:xlink="http://www.w3.org/1999/xlink"
 xmlns:xodm="http://www.corel.com/coreldraw/odm/2003">
 <defs>
  <style type="text/css">
   <![CDATA[
    .fil0 {fill:white}
    .fil3 {fill:black;fill-rule:nonzero}
    .fil1 {fill:#4D4D4D;fill-rule:nonzero}
    .fil2 {fill:#FFFF99;fill-rule:nonzero}
   ]]>
  </style>
 </defs>
 <g id="Layer_x0020_1">
  <metadata id="CorelCorpID_0Corel-Layer"/>
  <path class="fil0" d="M0.71 0c0.39,0 0.72,0.32 0.72,0.71 0,0.19 -0.07,0.37 -0.21,0.51l-0.51 0.5 -0.5 -0.49c-0.14,-0.14 -0.21,-0.32 -0.21,-0.51 0,-0.39 0.32,-0.71 0.71,-0.71z"/>
  <path class="fil1" d="M0.71 0.04c-0.37,0 -0.68,0.3 -0.68,0.68 0,0.18 0.07,0.35 0.2,0.48l0.48 0.47 0.48 -0.47c0.13,-0.13 0.2,-0.3 0.2,-0.48 -0,-0.37 -0.3,-0.68 -0.68,-0.68z"/>
  <path class="fil2" d="M1.1 1.1l-0.38 0.38 -0.38 -0.38c-0.1,-0.1 -0.16,-0.24 -0.16,-0.38 0,-0.3 0.24,-0.54 0.54,-0.54 0.3,0 0.54,0.24 0.54,0.54 0,0.14 -0.06,0.28 -0.16,0.38z"/>
  <path class="fil3" d="M0.5 0.65c-0.05,0 -0.05,-0.07 -0,-0.08 0,-0.07 0.03,-0.13 0.08,-0.17 -0.02,-0.09 0.29,-0.09 0.27,-0 0.05,0.04 0.08,0.1 0.08,0.17 0.04,0.01 0.03,0.07 -0.01,0.07l-0.05 0c-0,0.06 -0.01,0.12 -0.06,0.17 0.02,0.09 0.12,0.03 0.18,0.18 0.03,0.05 0.02,0.11 -0.04,0.11l-0.49 0c-0.05,0 -0.06,-0.06 -0.04,-0.11 0.07,-0.14 0.16,-0.08 0.18,-0.18 -0.06,-0.05 -0.06,-0.11 -0.06,-0.17l-0.05 0zm0.07 -0.08l0.28 0c-0,-0.03 -0.01,-0.06 -0.03,-0.08 -0.01,0.02 -0.01,0.07 -0.06,0.06 -0.05,-0.01 -0.02,-0.07 -0,-0.13 -0.03,-0.01 -0.07,-0.01 -0.1,0 0.01,0.05 0.04,0.11 -0,0.13 -0.04,0.01 -0.05,-0.03 -0.06,-0.06 -0.02,0.02 -0.03,0.05 -0.03,0.08zm0.23 0.08l-0.18 0c0,0.13 0.07,0.1 0.07,0.15 0,0.07 -0.04,0.14 -0.11,0.15 -0.04,0.01 -0.06,0.04 -0.08,0.07l0.43 0c-0.05,-0.1 -0.1,-0.05 -0.16,-0.13 -0.02,-0.03 -0.05,-0.11 -0.01,-0.13 0.04,-0.03 0.05,-0.07 0.05,-0.11z"/>
 </g>
</svg>
