<?xml version="1.0" encoding="UTF-8"?>
<!DOCTYPE svg PUBLIC "-//W3C//DTD SVG 1.1//EN" "http://www.w3.org/Graphics/SVG/1.1/DTD/svg11.dtd">
<!-- Creator: CorelDRAW 2021 (64-Bit) -->
<svg xmlns="http://www.w3.org/2000/svg" xml:space="preserve" width="177px" height="213px" version="1.1" style="shape-rendering:geometricPrecision; text-rendering:geometricPrecision; image-rendering:optimizeQuality; fill-rule:evenodd; clip-rule:evenodd"
viewBox="0 0 0.217 0.26"
 xmlns:xlink="http://www.w3.org/1999/xlink"
 xmlns:xodm="http://www.corel.com/coreldraw/odm/2003">
 <defs>
  <style type="text/css">
   <![CDATA[
    .fil3 {fill:black}
    .fil0 {fill:white}
    .fil4 {fill:black;fill-rule:nonzero}
    .fil1 {fill:#4D4D4D;fill-rule:nonzero}
    .fil2 {fill:#FF6600;fill-rule:nonzero}
   ]]>
  </style>
 </defs>
 <g id="Layer_x0020_1">
  <metadata id="CorelCorpID_0Corel-Layer"/>
  <path class="fil0" d="M0.108 0c0.06,0 0.109,0.049 0.109,0.108 0,0.029 -0.012,0.057 -0.032,0.077l-0.077 0.075 -0.076 -0.075c-0.021,-0.02 -0.032,-0.048 -0.032,-0.077 0,-0.059 0.049,-0.108 0.108,-0.108z"/>
  <path class="fil1" d="M0.108 0.006c-0.056,0 -0.102,0.046 -0.102,0.102 0,0.028 0.01,0.054 0.03,0.073l0.072 0.071 0.073 -0.071c0.019,-0.019 0.03,-0.045 0.03,-0.073 0,-0.056 -0.046,-0.102 -0.103,-0.102z"/>
  <path class="fil2" d="M0.166 0.166l-0.058 0.057 -0.058 -0.057c-0.015,-0.015 -0.024,-0.036 -0.024,-0.058 0,-0.045 0.037,-0.082 0.082,-0.082 0.046,0 0.082,0.037 0.082,0.082 0,0.022 -0.008,0.043 -0.024,0.058z"/>
  <path class="fil3" d="M0.064 0.056l0.004 0 0 -0.006c0,-0.003 0.002,-0.006 0.005,-0.006 0.004,0 0.006,0.003 0.006,0.006l0 0.006 0.058 0 0 -0.006c0,-0.003 0.003,-0.006 0.006,-0.006 0.003,0 0.006,0.003 0.006,0.006l0 0.006 0.004 0c0.004,0 0.008,0.004 0.008,0.008l0 0.041c0,0.008 -0.012,0.007 -0.012,-0.001l0 -0.014c0,-0.005 -0.003,-0.008 -0.008,-0.008l-0.065 0c-0.005,0 -0.008,0.003 -0.008,0.008l0 0.051c0,0.004 0.003,0.008 0.008,0.008l0.021 0c0.008,0 0.01,0.012 0,0.012l-0.033 0c-0.004,0 -0.008,-0.004 -0.008,-0.008l0 -0.089c0,-0.004 0.004,-0.008 0.008,-0.008zm0.013 0.087l0.006 0c0.001,0 0.002,-0.002 0.002,-0.003l0 -0.001c0,-0.002 -0.001,-0.003 -0.002,-0.003l-0.006 0c-0.002,0 -0.003,0.001 -0.003,0.003l0 0.001c0,0.001 0.001,0.003 0.003,0.003zm0 -0.016l0.006 0c0.001,0 0.002,-0.001 0.002,-0.003l0 -0.001c0,-0.002 -0.001,-0.003 -0.002,-0.003l-0.006 0c-0.002,0 -0.003,0.001 -0.003,0.003l0 0.001c0,0.002 0.001,0.003 0.003,0.003zm0.019 0l0.001 0c0.002,-0.002 0.005,-0.004 0.007,-0.005 0,-0.001 -0.001,-0.002 -0.002,-0.002l-0.006 0c-0.002,0 -0.003,0.001 -0.003,0.003l0 0.001c0,0.002 0.001,0.003 0.003,0.003zm0.027 -0.007c-0.001,0 -0.001,0 -0.002,0l-0.006 0c-0.001,0 -0.001,0 -0.002,0l0.01 0zm-0.046 -0.009l0.006 0c0.001,0 0.002,-0.001 0.002,-0.003l0 -0.001c0,-0.002 -0.001,-0.003 -0.002,-0.003l-0.006 0c-0.002,0 -0.003,0.001 -0.003,0.003l0 0.001c0,0.002 0.001,0.003 0.003,0.003zm0.019 0l0.006 0c0.001,0 0.003,-0.001 0.003,-0.003l0 -0.001c0,-0.002 -0.002,-0.003 -0.003,-0.003l-0.006 0c-0.002,0 -0.003,0.001 -0.003,0.003l0 0.001c0,0.002 0.001,0.003 0.003,0.003zm0.019 0l0.006 0c0.002,0 0.003,-0.001 0.003,-0.003l0 -0.001c0,-0.002 -0.001,-0.003 -0.003,-0.003l-0.006 0c-0.002,0 -0.003,0.001 -0.003,0.003l0 0.001c0,0.002 0.001,0.003 0.003,0.003zm0.019 0l0 0c0.001,-0.001 0.002,-0.001 0.002,-0.002 0.002,-0.002 0.004,-0.003 0.006,-0.004 0,0 -0.001,-0.001 -0.002,-0.001l-0.006 0c-0.001,0 -0.003,0.001 -0.003,0.003l0 0.001c0,0.002 0.002,0.003 0.003,0.003zm-0.057 -0.016l0.006 0c0.001,0 0.002,-0.001 0.002,-0.003l0 -0.001c0,-0.001 -0.001,-0.003 -0.002,-0.003l-0.006 0c-0.002,0 -0.003,0.002 -0.003,0.003l0 0.001c0,0.002 0.001,0.003 0.003,0.003zm0.019 0l0.006 0c0.001,0 0.003,-0.001 0.003,-0.003l0 -0.001c0,-0.001 -0.002,-0.003 -0.003,-0.003l-0.006 0c-0.002,0 -0.003,0.002 -0.003,0.003l0 0.001c0,0.002 0.001,0.003 0.003,0.003zm0.019 0l0.006 0c0.002,0 0.003,-0.001 0.003,-0.003l0 -0.001c0,-0.001 -0.001,-0.003 -0.003,-0.003l-0.006 0c-0.002,0 -0.003,0.002 -0.003,0.003l0 0.001c0,0.002 0.001,0.003 0.003,0.003zm0.019 0l0.006 0c0.002,0 0.003,-0.001 0.003,-0.003l0 -0.001c0,-0.001 -0.001,-0.003 -0.003,-0.003l-0.006 0c-0.001,0 -0.003,0.002 -0.003,0.003l0 0.001c0,0.002 0.002,0.003 0.003,0.003z"/>
  <path class="fil4" d="M0.151 0.118l0.018 0.017c0.002,0.002 0.002,0.005 0,0.007l-0.018 0.017c-0.004,0.005 -0.012,-0.003 -0.008,-0.008l0.007 -0.007 -0.039 0c-0.007,0 -0.007,-0.011 0,-0.011l0.039 0c-0.008,-0.008 -0.011,-0.009 -0.005,-0.015 0.002,-0.002 0.005,-0.002 0.006,0z"/>
 </g>
</svg>
