
<svg xmlns="http://www.w3.org/2000/svg" xml:space="preserve" style="shape-rendering:geometricPrecision; text-rendering:geometricPrecision; image-rendering:optimizeQuality; fill-rule:evenodd; clip-rule:evenodd"
viewBox="0 0 0.051 0.051" xmlns:xlink="http://www.w3.org/1999/xlink" fill="#fff">
 <defs>
 </defs>
 <g>
  <path d="M0.017 0.05l-0.014 0.001c-0.002,0.001 -0.003,-0.001 -0.003,-0.003l0.001 -0.014c0,-0.001 0.001,-0.002 0.001,-0.002l0 0 0.03 -0.03c0.005,-0.005 0.01,0 0.01,0l0.007 0.007c0.003,0.003 0.003,0.007 0,0.01l-0.03 0.03c0,0.001 -0.001,0.001 -0.002,0.001zm-0.011 -0.005l0.01 -0.001 0.023 -0.022 -0.01 -0.009 -0.022 0.022 -0.001 0.01zm0.03 -0.039l-0.003 0.003 0.01 0.009c0.004,-0.005 0.004,-0.003 -0.005,-0.012l0 0c0,0 -0.001,-0.001 -0.002,0z"/>
 </g>
</svg>
