<svg xmlns="http://www.w3.org/2000/svg" xml:space="preserve" version="1.1" class="h-6" style="shape-rendering:geometricPrecision; text-rendering:geometricPrecision; image-rendering:optimizeQuality; fill-rule:evenodd; clip-rule:evenodd"
     viewBox="0 0 1.42 1.77" xmlns:xlink="http://www.w3.org/1999/xlink">
 <defs>
  <style type="text/css">
    .fil3 {fill:white}
    .fil0 {fill:white}
    .fil1 {fill:#4D4D4D;fill-rule:nonzero}
    .fil2 {fill:#C83223;fill-rule:nonzero}
  </style>
 </defs>
 <g>
  <path class="fil0" d="M0.72 0c0.4,0 0.72,0.32 0.72,0.72 0,0.19 -0.07,0.37 -0.21,0.51l-0.51 0.5 -0.51 -0.5c-0.14,-0.14 -0.21,-0.32 -0.21,-0.51 0,-0.4 0.32,-0.72 0.72,-0.72z"/>
  <path class="fil1" d="M0.72 0.04c-0.37,0 -0.68,0.3 -0.68,0.68 0,0.18 0.07,0.35 0.2,0.48l0.48 0.47 0.48 -0.47c0.13,-0.13 0.2,-0.3 0.2,-0.48 -0,-0.37 -0.3,-0.68 -0.68,-0.68z"/>
  <path class="fil2" d="M1.1 1.1l-0.38 0.38 -0.38 -0.38c-0.1,-0.1 -0.16,-0.24 -0.16,-0.38 0,-0.3 0.24,-0.54 0.54,-0.54 0.3,0 0.54,0.24 0.54,0.54 0,0.14 -0.06,0.28 -0.16,0.38z"/>
  <path class="fil3" d="M0.72 0.66l0.2 -0.2c0.03,-0.03 0.08,0.02 0.05,0.05l-0.2 0.2 0.2 0.2c0.03,0.03 -0.02,0.08 -0.05,0.05l-0.2 -0.2 -0.2 0.2c-0.03,0.03 -0.08,-0.02 -0.05,-0.05l0.2 -0.2 -0.2 -0.2c-0.03,-0.03 0.02,-0.08 0.05,-0.05l0.2 0.2z"/>
 </g>
</svg>
