<svg xmlns="http://www.w3.org/2000/svg" xml:space="preserve" version="1.1" class="h-6" style="shape-rendering:geometricPrecision; text-rendering:geometricPrecision; image-rendering:optimizeQuality; fill-rule:evenodd; clip-rule:evenodd"
     viewBox="0 0 1.42 1.77" xmlns:xlink="http://www.w3.org/1999/xlink">
 <defs>
  <style type="text/css">
    .fil0 {fill:white}
    .fil2 {fill:blue;fill-rule:nonzero}
    .fil1 {fill:#4D4D4D;fill-rule:nonzero}
    .fil3 {fill:white;fill-rule:nonzero}
  </style>
 </defs>
 <g>
  <path class="fil0" d="M0.71 0c0.39,0 0.71,0.32 0.71,0.71 0,0.19 -0.07,0.37 -0.21,0.5l-0.5 0.49 -0.5 -0.49c-0.13,-0.13 -0.21,-0.31 -0.21,-0.5 0,-0.39 0.32,-0.71 0.71,-0.71z"/>
  <path class="fil1" d="M0.71 0.04c-0.37,0 -0.67,0.3 -0.67,0.67 0,0.18 0.07,0.35 0.2,0.48l0.47 0.47 0.48 -0.47c0.13,-0.13 0.2,-0.3 0.2,-0.48 -0,-0.37 -0.3,-0.67 -0.67,-0.67z"/>
  <path class="fil2" d="M1.09 1.09l-0.38 0.37 -0.38 -0.37c-0.1,-0.1 -0.16,-0.24 -0.16,-0.38 0,-0.3 0.24,-0.54 0.54,-0.54 0.3,0 0.54,0.24 0.54,0.54 0,0.14 -0.06,0.28 -0.16,0.38z"/>
  <path class="fil3" d="M0.95 1.05l-0.47 0c-0.03,0 -0.06,-0.01 -0.07,-0.03l-0 -0c-0.02,-0.02 -0.03,-0.05 -0.03,-0.07l0 -0.47c0,-0.03 0.01,-0.06 0.03,-0.07l0 -0c0.02,-0.02 0.05,-0.03 0.07,-0.03l0.37 0c0.01,0 0.02,0 0.03,0.01l0.17 0.17c0.01,0.01 0.01,0.02 0.01,0.03l0 0.37c0,0.03 -0.01,0.06 -0.03,0.07l-0 0c-0.02,0.02 -0.05,0.03 -0.07,0.03zm-0.47 -0.08l0.03 0 0 -0.23c0,-0.02 0.02,-0.04 0.04,-0.04l0.34 0c0.02,0 0.04,0.02 0.04,0.04l0 0.23 0.03 0c0.01,0 0.02,-0 0.02,-0.01l0 -0c0.01,-0.01 0.01,-0.01 0.01,-0.02l0 -0.36 -0.15 -0.15 -0.25 0 0 0.09 0.23 0c0.02,0 0.04,0.02 0.04,0.04 0,0.02 -0.02,0.04 -0.04,0.04l-0.27 0c-0.02,0 -0.04,-0.02 -0.04,-0.04l0 -0.13 -0.03 0c-0.01,0 -0.02,0 -0.02,0.01l-0 0c-0.01,0.01 -0.01,0.01 -0.01,0.02l0 0.47c0,0.01 0,0.02 0.01,0.02l0 0c0.01,0.01 0.01,0.01 0.02,0.01zm0.11 0l0.26 0 0 -0.19 -0.26 0 0 0.19z"/>
 </g>
</svg>
