<svg xmlns="http://www.w3.org/2000/svg" xml:space="preserve" version="1.1" class="h-6" style="shape-rendering:geometricPrecision; text-rendering:geometricPrecision; image-rendering:optimizeQuality; fill-rule:evenodd; clip-rule:evenodd"
     viewBox="0 0 1.42 1.77" xmlns:xlink="http://www.w3.org/1999/xlink">
 <defs>
  <style type="text/css">
    .fil0 {fill:white}
    .fil3 {fill:#2B2A29;fill-rule:nonzero}
    .fil1 {fill:#4D4D4D;fill-rule:nonzero}
    .fil2 {fill:#FFCC00;fill-rule:nonzero}
  </style>
 </defs>
 <g>
  <path class="fil0" d="M0.71 0c0.39,0 0.71,0.32 0.71,0.71 0,0.19 -0.07,0.37 -0.21,0.5l-0.5 0.49 -0.5 -0.49c-0.14,-0.14 -0.21,-0.31 -0.21,-0.5 0,-0.39 0.32,-0.71 0.71,-0.71z"/>
  <path class="fil1" d="M0.71 0.04c-0.37,0 -0.67,0.3 -0.67,0.67 0,0.18 0.07,0.35 0.2,0.48l0.48 0.47 0.48 -0.47c0.13,-0.13 0.2,-0.3 0.2,-0.48 -0,-0.37 -0.3,-0.67 -0.67,-0.67z"/>
  <path class="fil2" d="M1.09 1.09l-0.38 0.37 -0.38 -0.37c-0.33,-0.33 -0.1,-0.92 0.38,-0.92 0.48,0 0.72,0.58 0.38,0.92z"/>
  <path class="fil3" d="M0.53 0.53l0.19 0.13 0.19 -0.13 -0.37 0zm-0.12 0.01l0 0.35 0.44 0c0.04,0 0.04,0.08 0,0.08l-0.44 0c-0.04,0 -0.08,-0.03 -0.08,-0.08l0 -0.36c0,-0.04 0.03,-0.08 0.08,-0.08l0.61 0c0.04,0 0.08,0.03 0.08,0.08 0,0.06 0.01,0.08 -0.05,0.08 -0.04,0 -0.03,-0.04 -0.03,-0.07l-0.29 0.2c-0.01,0.01 -0.02,0.01 -0.04,0l-0.29 -0.2zm0.63 0.12l0.12 0.12c0.01,0.01 0.01,0.03 0,0.04l-0.12 0.12c-0.03,0.03 -0.08,-0.02 -0.05,-0.05l0.04 -0.04 -0.26 0c-0.04,0 -0.04,-0.08 0,-0.08l0.26 0c-0.05,-0.05 -0.07,-0.06 -0.03,-0.1 0.01,-0.01 0.03,-0.01 0.04,0z"/>
 </g>
</svg>
