<svg xmlns="http://www.w3.org/2000/svg" xml:space="preserve" version="1.1" class="h-6" style="shape-rendering:geometricPrecision; text-rendering:geometricPrecision; image-rendering:optimizeQuality; fill-rule:evenodd; clip-rule:evenodd"
viewBox="0 0 1.42 1.77" xmlns:xlink="http://www.w3.org/1999/xlink">
 <defs>
  <style type="text/css">
    .fil0 {fill:white}
    .fil2 {fill:#33CC33;fill-rule:nonzero}
    .fil1 {fill:#4D4D4D;fill-rule:nonzero}
    .fil3 {fill:white;fill-rule:nonzero}
  </style>
 </defs>
 <g>
  <path class="fil0" d="M0.71 0c0.39,0 0.71,0.32 0.71,0.71 0,0.19 -0.07,0.37 -0.21,0.5l-0.5 0.49 -0.5 -0.49c-0.14,-0.14 -0.21,-0.31 -0.21,-0.51 0,-0.39 0.32,-0.71 0.71,-0.71z"/>
  <path class="fil1" d="M0.71 0.04c-0.37,0 -0.68,0.3 -0.68,0.68 0,0.18 0.07,0.35 0.2,0.48l0.48 0.47 0.48 -0.47c0.13,-0.13 0.2,-0.3 0.2,-0.48 -0,-0.37 -0.3,-0.68 -0.68,-0.68z"/>
  <path class="fil2" d="M1.1 1.1l-0.38 0.37 -0.38 -0.37c-0.1,-0.1 -0.16,-0.24 -0.16,-0.38 0,-0.3 0.24,-0.54 0.54,-0.54 0.3,0 0.54,0.24 0.54,0.54 0,0.14 -0.06,0.28 -0.16,0.38z"/>
  <path class="fil3" d="M0.6 1.04l-0.19 0.02c-0.02,0 -0.04,-0.02 -0.04,-0.04l0.02 -0.2c0,-0.01 0,-0.02 0.01,-0.02l-0 -0 0.4 -0.4c0.06,-0.06 0.14,0 0.14,0l0.09 0.09c0.04,0.04 0.04,0.1 0,0.14l-0.4 0.4c-0.01,0.01 -0.02,0.01 -0.03,0.01zm-0.15 -0.06l0.14 -0.01 0.3 -0.3 -0.12 -0.12 -0.3 0.3 -0.01 0.14zm0.4 -0.53l-0.04 0.04 0.12 0.12c0.06,-0.06 0.06,-0.04 -0.06,-0.16l0 -0c-0.01,-0.01 -0.02,-0.01 -0.03,-0z"/>
 </g>
</svg>
